<svg width="100" height="125" viewBox="0 0 100 125" fill="none" xmlns="http://www.w3.org/2000/svg">
<path d="M75.354 32.356C67.751 32.356 61.017 36.12 56.906 41.881C56.858 41.839 56.816 41.797 56.769 41.756C53.854 39.354 50.565 37.48 47.057 36.187C51.476 32.415 54.282 26.806 54.282 20.555C54.281 9.222 45.061 0 33.727 0C22.393 0 13.173 9.222 13.173 20.556C13.173 27.347 16.484 33.377 21.576 37.123C17.984 38.763 14.678 41.049 11.803 43.924C5.478 50.249 1.996 58.655 1.996 67.6C1.996 67.692 1.999 67.782 2.008 67.872C1.999 67.962 1.996 68.053 1.996 68.143V96.622C1.996 98.518 3.531 100.055 5.429 100.055H62.027C63.923 100.055 65.459 98.518 65.459 96.622C65.459 94.726 63.924 93.191 62.027 93.191H8.859V68.144C8.859 68.053 8.855 67.962 8.848 67.873C8.855 67.782 8.859 67.692 8.859 67.601C8.859 53.755 19.485 42.347 33.009 41.099C33.246 41.108 33.487 41.112 33.726 41.112C34.487 41.112 35.24 41.07 35.979 40.988C41.969 41.102 47.782 43.245 52.4 47.053C52.846 47.423 53.359 47.657 53.889 47.767C53.12 50.043 52.701 52.477 52.701 55.01C52.701 56.904 54.239 58.441 56.133 58.441C58.029 58.441 59.565 56.904 59.565 55.01C59.565 46.305 66.649 39.222 75.354 39.222C84.061 39.222 91.141 46.305 91.141 55.01C91.141 63.716 84.061 70.797 75.354 70.797C73.458 70.797 71.922 72.334 71.922 74.23V83.836C71.922 85.732 73.458 87.268 75.354 87.268C77.25 87.268 78.786 85.732 78.786 83.836V77.401C89.654 75.743 98.005 66.335 98.005 55.009C98.004 42.518 87.845 32.356 75.354 32.356ZM20.036 20.556C20.036 13.007 26.18 6.864 33.727 6.864C41.277 6.864 47.42 13.008 47.42 20.556C47.42 27.471 42.266 33.204 35.596 34.118C35.558 34.118 35.515 34.117 35.476 34.117C34.599 34.117 33.726 34.151 32.86 34.219C25.714 33.77 20.036 27.814 20.036 20.556Z" fill="black"/>
<path d="M75.354 100.971C77.8128 100.971 79.806 98.9778 79.806 96.519C79.806 94.0602 77.8128 92.067 75.354 92.067C72.8952 92.067 70.902 94.0602 70.902 96.519C70.902 98.9778 72.8952 100.971 75.354 100.971Z" fill="black"/>
</svg>
