<svg width="48" height="60" viewBox="0 0 48 60" fill="none" xmlns="http://www.w3.org/2000/svg">
<path fill-rule="evenodd" clip-rule="evenodd" d="M11 6H32V10H11V6ZM11 12H32V14H19H18V15V25.7692V26.7692H19H22.3077V29V31L23.9077 29.8L27.9487 26.7692H32V33H11V12ZM34 26.7692V42C34 43.1046 33.1046 44 32 44H11C9.89543 44 9 43.1046 9 42V6C9 4.89543 9.89543 4 11 4H32C33.1046 4 34 4.89543 34 6V14H38.3846H39.3846V15V25.7692V26.7692H38.3846H34ZM11 35V42H32V35H11ZM21 7C20.4477 7 20 7.44771 20 8C20 8.55229 20.4477 9 21 9H26C26.5523 9 27 8.55229 27 8C27 7.44771 26.5523 7 26 7H21ZM18 8C18 8.55229 17.5523 9 17 9C16.4477 9 16 8.55229 16 8C16 7.44771 16.4477 7 17 7C17.5523 7 18 7.44771 18 8ZM23 38.5C23 39.3284 22.3284 40 21.5 40C20.6716 40 20 39.3284 20 38.5C20 37.6716 20.6716 37 21.5 37C22.3284 37 23 37.6716 23 38.5ZM24 38.5C24 39.8807 22.8807 41 21.5 41C20.1193 41 19 39.8807 19 38.5C19 37.1193 20.1193 36 21.5 36C22.8807 36 24 37.1193 24 38.5ZM20 24.7692V16H37.3846V24.7692H27.6154H27.2821L27.0154 24.9692L24.3077 27V25.7692V24.7692H23.3077H20Z" fill="black"/>
</svg>
