<svg width="31" height="40" viewBox="0 0 31 40" fill="none" xmlns="http://www.w3.org/2000/svg">
<path fill-rule="evenodd" clip-rule="evenodd" d="M2 2H23V6H2V2ZM2 8H23V10H10H9V11V21.7692V22.7692H10H13.3077V25V27L14.9077 25.8L18.9487 22.7692H23V29H2V8ZM25 22.7692V38C25 39.1046 24.1046 40 23 40H2C0.89543 40 0 39.1046 0 38V2C0 0.89543 0.89543 0 2 0H23C24.1046 0 25 0.89543 25 2V10H29.3846H30.3846V11V21.7692V22.7692H29.3846H25ZM2 31V38H23V31H2ZM12 3C11.4477 3 11 3.44771 11 4C11 4.55229 11.4477 5 12 5H17C17.5523 5 18 4.55229 18 4C18 3.44771 17.5523 3 17 3H12ZM9 4C9 4.55229 8.5523 5 8 5C7.4477 5 7 4.55229 7 4C7 3.44771 7.4477 3 8 3C8.5523 3 9 3.44771 9 4ZM14 34.5C14 35.3284 13.3284 36 12.5 36C11.6716 36 11 35.3284 11 34.5C11 33.6716 11.6716 33 12.5 33C13.3284 33 14 33.6716 14 34.5ZM15 34.5C15 35.8807 13.8807 37 12.5 37C11.1193 37 10 35.8807 10 34.5C10 33.1193 11.1193 32 12.5 32C13.8807 32 15 33.1193 15 34.5ZM11 20.7692V12H28.3846V20.7692H18.6154H18.2821L18.0154 20.9692L15.3077 23V21.7692V20.7692H14.3077H11Z" fill="white"/>
</svg>
