<svg width="10" height="10" viewBox="0 0 10 10" fill="none" xmlns="http://www.w3.org/2000/svg">
<path d="M9.32928 2.49023C8.88217 1.72415 8.27569 1.11765 7.50968 0.67058C6.74356 0.223489 5.90718 0 4.99995 0C4.09284 0 3.25619 0.223557 2.49023 0.67058C1.72415 1.11763 1.11769 1.72415 0.67058 2.49023C0.223534 3.25628 0 4.09282 0 4.99982C0 6.08933 0.317869 7.06904 0.953765 7.93921C1.58959 8.80945 2.41099 9.41162 3.41789 9.7458C3.53509 9.76755 3.62186 9.75225 3.67827 9.70028C3.73471 9.64825 3.76289 9.58308 3.76289 9.50505C3.76289 9.49203 3.76177 9.37489 3.75961 9.1535C3.75737 8.93211 3.75632 8.73897 3.75632 8.57417L3.60658 8.60008C3.5111 8.61757 3.39066 8.62498 3.24525 8.62288C3.0999 8.62085 2.94902 8.60562 2.7928 8.5773C2.63651 8.54923 2.49114 8.48413 2.35658 8.38213C2.22209 8.28014 2.12662 8.14663 2.07018 7.98181L2.00508 7.832C1.96169 7.73226 1.89337 7.62146 1.80004 7.50001C1.70671 7.37845 1.61233 7.29604 1.51685 7.25265L1.47127 7.22002C1.4409 7.19833 1.41271 7.17218 1.38665 7.14183C1.36061 7.11148 1.34111 7.08111 1.32809 7.05069C1.31505 7.02025 1.32586 6.99528 1.36063 6.97569C1.39541 6.9561 1.45825 6.94659 1.54944 6.94659L1.6796 6.96604C1.76641 6.98344 1.87378 7.03541 2.00187 7.12226C2.12988 7.20905 2.23511 7.32188 2.31759 7.4607C2.41747 7.6387 2.5378 7.77433 2.67892 7.86766C2.81993 7.96099 2.96211 8.00758 3.10531 8.00758C3.24851 8.00758 3.37219 7.99672 3.4764 7.97513C3.58049 7.95342 3.67815 7.92079 3.76934 7.87742C3.8084 7.5865 3.91475 7.36301 4.08831 7.20679C3.84094 7.1808 3.61855 7.14165 3.42101 7.08959C3.22358 7.03746 3.01957 6.95286 2.8091 6.83557C2.59852 6.71843 2.42383 6.57297 2.28498 6.39944C2.14611 6.22582 2.03215 5.99789 1.94324 5.71584C1.85429 5.43368 1.8098 5.1082 1.8098 4.7393C1.8098 4.21404 1.98127 3.76706 2.32416 3.39812C2.16354 3.00322 2.1787 2.56053 2.36969 2.07009C2.49556 2.03098 2.68223 2.06033 2.92959 2.15795C3.177 2.25561 3.35814 2.33928 3.4732 2.40864C3.58827 2.47798 3.68046 2.53675 3.74991 2.5844C4.15364 2.4716 4.57026 2.41519 4.99991 2.41519C5.42956 2.41519 5.84627 2.4716 6.25002 2.5844L6.4974 2.42823C6.66658 2.32402 6.86635 2.22852 7.09625 2.14171C7.32628 2.05495 7.50218 2.03105 7.62376 2.07016C7.819 2.56062 7.8364 3.00329 7.67573 3.39818C8.01859 3.76713 8.19013 4.21422 8.19013 4.73937C8.19013 5.10827 8.14548 5.43478 8.05667 5.7191C7.96774 6.00348 7.85279 6.23118 7.71178 6.4027C7.57061 6.5742 7.3948 6.71852 7.18433 6.83564C6.97382 6.95284 6.76973 7.03744 6.57231 7.08956C6.37479 7.14169 6.1524 7.18087 5.90504 7.20691C6.13065 7.40214 6.24347 7.71032 6.24347 8.1313V9.50486C6.24347 9.5829 6.27061 9.64804 6.32492 9.7001C6.37917 9.75207 6.46484 9.76737 6.58205 9.74559C7.58908 9.41146 8.41047 8.80927 9.04628 7.93903C9.68202 7.06886 10 6.08914 10 4.99964C9.99977 4.09275 9.77612 3.25628 9.32928 2.49023Z" fill="#5D20D3"/>
</svg>
