<svg width="10" height="10" viewBox="0 0 10 10" fill="none" xmlns="http://www.w3.org/2000/svg">
<path d="M9.58063 3.0021C8.80782 1.23729 7.04665 0 5 0C2.95335 0 1.19218 1.23729 0.419367 3.0021C0.418646 3.00373 0.417786 3.00515 0.417092 3.00681C0.150174 3.61808 0 4.29149 0 5C0 5.70851 0.150174 6.38192 0.417092 6.99319C0.417786 6.99485 0.418646 6.99627 0.419367 6.9979C1.19218 8.76271 2.95335 10 5 10C7.04665 10 8.80782 8.76271 9.58063 6.9979C9.58135 6.99627 9.58221 6.99485 9.58291 6.99319C9.84983 6.38192 10 5.70851 10 5C10 4.29149 9.84983 3.61808 9.58291 3.00681C9.58221 3.00515 9.58135 3.00373 9.58063 3.0021ZM5 9.09091C4.64023 9.09091 4.17622 8.42049 3.89271 7.27273H6.10729C5.82378 8.42049 5.35977 9.09091 5 9.09091ZM3.72314 6.36364C3.66857 5.94713 3.63636 5.49189 3.63636 5C3.63636 4.50811 3.66857 4.05287 3.72314 3.63636H6.27686C6.33143 4.05287 6.36364 4.50811 6.36364 5C6.36364 5.49189 6.33143 5.94713 6.27686 6.36364H3.72314ZM0.909091 5C0.909091 4.52135 0.996038 4.06364 1.14779 3.63636H2.81081C2.7554 4.08425 2.72727 4.54479 2.72727 5C2.72727 5.45521 2.7554 5.91575 2.81081 6.36364H1.14779C0.996038 5.93636 0.909091 5.47865 0.909091 5ZM5 0.909091C5.35977 0.909091 5.82378 1.57951 6.10729 2.72727H3.89271C4.17622 1.57951 4.64023 0.909091 5 0.909091ZM7.18919 3.63636H8.85221C9.00396 4.06364 9.09091 4.52135 9.09091 5C9.09091 5.47865 9.00396 5.93636 8.85221 6.36364H7.18919C7.2446 5.91575 7.27273 5.45521 7.27273 5C7.27273 4.54479 7.2446 4.08425 7.18919 3.63636ZM8.39913 2.72727H7.0335C6.90763 2.15704 6.73232 1.63455 6.51031 1.20159C7.2831 1.51001 7.94142 2.04501 8.39913 2.72727ZM3.48969 1.20159C3.26768 1.63455 3.09237 2.15704 2.9665 2.72727H1.60087C2.05858 2.04501 2.7169 1.51001 3.48969 1.20159ZM1.60087 7.27273H2.9665C3.09237 7.84296 3.26768 8.36545 3.48969 8.79841C2.7169 8.48999 2.05858 7.95499 1.60087 7.27273ZM6.51031 8.79841C6.73232 8.36545 6.90763 7.84296 7.0335 7.27273H8.39913C7.94142 7.95499 7.2831 8.48999 6.51031 8.79841Z" fill="#5D20D3"/>
</svg>
