<svg width="120" height="120" viewBox="0 0 120 120" fill="none" xmlns="http://www.w3.org/2000/svg">
<circle cx="60" cy="60" r="60" fill="#5D20D3"/>
<path d="M43.9748 83C44.3588 83 44.6148 82.744 44.6148 82.36V46.648C44.6148 46.392 44.7428 46.264 44.9988 46.264H56.3908C56.7748 46.264 57.0308 46.008 57.0308 45.624V40.12C57.0308 39.736 56.7748 39.48 56.3908 39.48H25.2868C24.9028 39.48 24.6468 39.736 24.6468 40.12V45.624C24.6468 46.008 24.9028 46.264 25.2868 46.264H36.6788C36.9348 46.264 37.0628 46.392 37.0628 46.648V82.36C37.0628 82.744 37.3188 83 37.7028 83H43.9748ZM56.1862 82.36C56.1862 82.744 56.4422 83 56.8262 83H62.3942C62.7782 83 63.0343 82.744 63.0343 82.36V55.736H63.2902L72.5063 76.216C72.7623 76.792 73.1462 77.048 73.7222 77.048H77.4342C78.0103 77.048 78.3943 76.792 78.6503 76.216L87.8663 55.736H88.1222V82.36C88.1222 82.744 88.3783 83 88.7623 83H94.3302C94.7143 83 94.9703 82.744 94.9703 82.36V40.12C94.9703 39.736 94.7143 39.48 94.3302 39.48H88.6982C88.1222 39.48 87.8022 39.672 87.6103 40.12L75.8343 66.936H75.5783L63.6103 40.12C63.4183 39.672 63.0983 39.48 62.5223 39.48H56.8262C56.4422 39.48 56.1862 39.736 56.1862 40.12V82.36Z" fill="white"/>
</svg>
